<?xml version="1.0" encoding="UTF-8" standalone="no"?>
<svg
   xmlns:dc="http://purl.org/dc/elements/1.1/"
   xmlns:cc="http://creativecommons.org/ns#"
   xmlns:rdf="http://www.w3.org/1999/02/22-rdf-syntax-ns#"
   xmlns:svg="http://www.w3.org/2000/svg"
   xmlns="http://www.w3.org/2000/svg"
   xmlns:sodipodi="http://sodipodi.sourceforge.net/DTD/sodipodi-0.dtd"
   xmlns:inkscape="http://www.inkscape.org/namespaces/inkscape"
   width="21"
   height="18"
   viewBox="0 0 21 18"
   fill="none"
   version="1.1"
   id="svg4"
   sodipodi:docname="heart.svg"
   inkscape:version="0.92.3 (2405546, 2018-03-11)">
  <metadata
     id="metadata10">
    <rdf:RDF>
      <cc:Work
         rdf:about="">
        <dc:format>image/svg+xml</dc:format>
        <dc:type
           rdf:resource="http://purl.org/dc/dcmitype/StillImage" />
      </cc:Work>
    </rdf:RDF>
  </metadata>
  <defs
     id="defs8" />
  <sodipodi:namedview
     pagecolor="#ffffff"
     bordercolor="#666666"
     borderopacity="1"
     objecttolerance="10"
     gridtolerance="10"
     guidetolerance="10"
     inkscape:pageopacity="0"
     inkscape:pageshadow="2"
     inkscape:window-width="823"
     inkscape:window-height="480"
     id="namedview6"
     showgrid="false"
     inkscape:zoom="13.111111"
     inkscape:cx="10.5"
     inkscape:cy="9"
     inkscape:window-x="0"
     inkscape:window-y="27"
     inkscape:window-maximized="0"
     inkscape:current-layer="svg4" />
  <path
     d="M19.3807 1.59133C18.8676 1.08683 18.2583 0.686629 17.5878 0.413583C16.9172 0.140537 16.1985 0 15.4727 0C14.7468 0 14.0281 0.140537 13.3576 0.413583C12.687 0.686629 12.0778 1.08683 11.5646 1.59133L10.4997 2.63785L9.43482 1.59133C8.39834 0.572757 6.99258 0.000527962 5.52679 0.000527973C4.06099 0.000527984 2.65523 0.572757 1.61876 1.59133C0.582285 2.6099 1.0921e-08 3.99139 0 5.43187C-1.0921e-08 6.87235 0.582285 8.25383 1.61876 9.2724L2.68367 10.3189L10.4997 18L18.3158 10.3189L19.3807 9.2724C19.8941 8.76814 20.3013 8.16942 20.5791 7.51045C20.857 6.85148 21 6.14517 21 5.43187C21 4.71857 20.857 4.01225 20.5791 3.35328C20.3013 2.69431 19.8941 2.09559 19.3807 1.59133V1.59133Z"
     fill="#2D89F4"
     id="path2"
     style="fill:#2df4f4;fill-opacity:1" />
</svg>
